<svg width="52" height="52" viewBox="0 0 52 52" fill="none" xmlns="http://www.w3.org/2000/svg">
    <g clip-path="url(#clip0)">
        <path d="M51.1711 40.1554L31.2953 5.72959C30.1901 3.81535 28.2106 2.67236 26 2.67236C23.7895 2.67236 21.8098 3.81535 20.7046 5.72959L0.828977 40.1553C-0.276326 42.0697 -0.276326 44.3555 0.828977 46.2698C1.93428 48.1842 3.91373 49.327 6.12433 49.327H45.8756C48.0861 49.327 50.0657 48.1841 51.1711 46.2699C52.2764 44.3555 52.2764 42.0697 51.1711 40.1554ZM48.5327 44.7467C47.978 45.7073 46.9848 46.2807 45.8756 46.2807H6.12433C5.01507 46.2807 4.02179 45.7073 3.46726 44.7467C2.91273 43.7861 2.91273 42.6393 3.46726 41.6787L23.3431 7.25292C23.8976 6.29235 24.8909 5.71893 26.0001 5.71893C27.1091 5.71893 28.1025 6.29235 28.657 7.25292L48.5328 41.6787C49.0872 42.6393 49.0872 43.7861 48.5327 44.7467Z" fill="#FBBD1C"/>
        <path d="M27.5231 17.876H24.4766V33.1085H27.5231V17.876Z" fill="#FBBD1C"/>
        <path d="M25.9999 36.1553C24.88 36.1553 23.9689 37.0664 23.9689 38.1863C23.9689 39.3062 24.88 40.2174 25.9999 40.2174C27.1198 40.2174 28.031 39.3062 28.031 38.1863C28.031 37.0664 27.1199 36.1553 25.9999 36.1553Z" fill="#FBBD1C"/>
    </g>
    <defs>
        <clipPath id="clip0">
            <rect width="52" height="52" fill="white"/>
        </clipPath>
    </defs>
</svg>
