<svg width="32" height="32" viewBox="0 0 32 32" fill="none" xmlns="http://www.w3.org/2000/svg">
    <g clip-path="url(#clip0)">
        <path d="M31.4899 24.7111L19.2587 3.52602C18.5785 2.34803 17.3604 1.64465 16 1.64465C14.6397 1.64465 13.4214 2.34803 12.7413 3.52602L0.51014 24.711C-0.170047 25.8892 -0.170047 27.2958 0.51014 28.4739C1.19033 29.6519 2.40845 30.3552 3.76882 30.3552H28.2311C29.5915 30.3552 30.8096 29.6519 31.4899 28.4739C32.1701 27.2958 32.1701 25.8892 31.4899 24.7111ZM29.8663 27.5365C29.525 28.1277 28.9137 28.4805 28.2311 28.4805H3.76882C3.0862 28.4805 2.47495 28.1277 2.1337 27.5365C1.79245 26.9454 1.79245 26.2397 2.1337 25.6485L14.365 4.46346C14.7062 3.87234 15.3175 3.51946 16 3.51946C16.6825 3.51946 17.2939 3.87234 17.6351 4.46346L29.8663 25.6485C30.2075 26.2397 30.2075 26.9454 29.8663 27.5365Z" fill="#6E3AC1"/>
        <path d="M16.9372 11.0006H15.0625V20.3745H16.9372V11.0006Z" fill="#6E3AC1"/>
        <path d="M15.9999 22.2493C15.3107 22.2493 14.75 22.81 14.75 23.4992C14.75 24.1884 15.3107 24.7491 15.9999 24.7491C16.689 24.7491 17.2497 24.1884 17.2497 23.4992C17.2497 22.81 16.6891 22.2493 15.9999 22.2493Z" fill="#6E3AC1"/>
    </g>
    <defs>
        <clipPath id="clip0">
            <rect width="32" height="32" fill="white"/>
        </clipPath>
    </defs>
</svg>
