<svg width="32" height="32" viewBox="0 0 32 32" fill="none" xmlns="http://www.w3.org/2000/svg">
    <path d="M4.08765 3.752V24.6082C4.08765 26.6771 5.77077 28.3603 7.83965 28.3603H9.4334V32L12.8727 30.4523L16.312 32V28.3603H27.9125V0H7.83965C5.77077 0 4.08765 1.68313 4.08765 3.752ZM14.4372 29.1003L12.8728 28.3964L11.3084 29.1003V26.4839H14.4372V29.1003ZM26.0376 26.4854H16.3121V24.609H9.4334V26.4854H7.83965C6.80458 26.4854 5.96252 25.6433 5.96252 24.6082C5.96252 23.5732 6.80465 22.7311 7.83965 22.7311H26.0376V26.4854ZM26.0376 20.8563H7.83965C7.15602 20.8563 6.51508 21.0409 5.96252 21.3617V3.752C5.96252 2.71694 6.80465 1.87487 7.83965 1.87487H26.0376V20.8563Z" fill="#4068EC"/>
    <path d="M22.2518 12.303V10.4281H20.8334C20.7052 9.7662 20.445 9.15077 20.0799 8.61158L21.0836 7.60789L19.7578 6.28214L18.7542 7.28583C18.2149 6.92064 17.5995 6.66045 16.9376 6.53233V5.11395H15.0627V6.53233C14.4008 6.66052 13.7853 6.9207 13.2462 7.28583L12.2425 6.28214L10.9167 7.60789L11.9204 8.61158C11.5552 9.15077 11.295 9.7662 11.1669 10.4281H9.74854V12.303H11.1669C11.295 12.965 11.5553 13.5804 11.9204 14.1196L10.9167 15.1233L12.2425 16.449L13.2462 15.4453C13.7854 15.8105 14.4008 16.0707 15.0627 16.1988V17.6172H16.9376V16.1988C17.5995 16.0706 18.215 15.8105 18.7542 15.4453L19.7578 16.449L21.0836 15.1233L20.0799 14.1196C20.4451 13.5803 20.7053 12.965 20.8334 12.303H22.2518ZM16.0001 14.4146C14.3189 14.4146 12.9511 13.0468 12.9511 11.3656C12.9511 9.68439 14.3189 8.31658 16.0001 8.31658C17.6813 8.31658 19.0491 9.68439 19.0491 11.3656C19.0491 13.0468 17.6813 14.4146 16.0001 14.4146Z" fill="#4068EC"/>
</svg>
