<svg width="40" height="52" viewBox="0 0 40 52" fill="none" xmlns="http://www.w3.org/2000/svg">
    <path d="M0.940186 6.40322V39.7732C0.940186 43.0834 3.63318 45.7764 6.94338 45.7764H9.49338V51.6L14.9963 49.1237L20.4992 51.6V45.7765H39.0599V0.400024H6.94338C3.63318 0.400024 0.940186 3.09302 0.940186 6.40322ZM17.4995 46.9605L14.9964 45.8342L12.4934 46.9605V42.7743H17.4995V46.9605ZM36.0601 42.7766H20.4993V39.7744H9.49338V42.7766H6.94338C5.28728 42.7766 3.93998 41.4293 3.93998 39.7732C3.93998 38.1171 5.28738 36.7698 6.94338 36.7698H36.0601V42.7766ZM36.0601 33.77H6.94338C5.84958 33.77 4.82408 34.0655 3.93998 34.5787V6.40322C3.93998 4.74712 5.28738 3.39982 6.94338 3.39982H36.0601V33.77Z" fill="#4068EC"/>
    <path d="M30.0027 20.0848V17.085H27.7333C27.5282 16.0259 27.1119 15.0412 26.5277 14.1785L28.1336 12.5726L26.0124 10.4514L24.4065 12.0573C23.5437 11.473 22.5591 11.0567 21.5 10.8517V8.58228H18.5002V10.8517C17.4411 11.0568 16.4564 11.4731 15.5937 12.0573L13.9878 10.4514L11.8666 12.5726L13.4725 14.1785C12.8882 15.0412 12.4719 16.0259 12.2669 17.085H9.9975V20.0848H12.2669C12.4719 21.1439 12.8883 22.1286 13.4725 22.9913L11.8666 24.5972L13.9878 26.7184L15.5937 25.1125C16.4565 25.6968 17.4411 26.1131 18.5002 26.3181V28.5875H21.5V26.3181C22.5591 26.113 23.5438 25.6967 24.4065 25.1125L26.0124 26.7184L28.1336 24.5972L26.5277 22.9913C27.112 22.1285 27.5283 21.1439 27.7333 20.0848H30.0027ZM20 23.4633C17.3101 23.4633 15.1216 21.2748 15.1216 18.5849C15.1216 15.895 17.3101 13.7065 20 13.7065C22.6899 13.7065 24.8784 15.895 24.8784 18.5849C24.8784 21.2748 22.6899 23.4633 20 23.4633Z" fill="#4068EC"/>
</svg>
