<svg width="44" height="44" viewBox="0 0 44 44" fill="none" xmlns="http://www.w3.org/2000/svg">
    <path d="M41.7366 16.8983L37.9515 16.5335C37.5499 14.922 36.9014 13.3822 36.0297 11.9683L38.4423 9.05567C38.6793 8.76989 38.6597 8.35103 38.3974 8.08877L34.3033 3.99435C34.0411 3.73209 33.6222 3.71278 33.3364 3.94941L30.4217 6.36281C29.0054 5.49737 27.4673 4.84926 25.8586 4.44024L25.4934 0.649868C25.458 0.281223 25.148 0 24.7776 0H19.1822C18.8118 0 18.5022 0.281223 18.4667 0.649868L18.1012 4.44024C16.4925 4.84891 14.9544 5.49737 13.5381 6.36281L10.6234 3.94871C10.3379 3.71208 9.91907 3.73139 9.65645 3.99365L5.56239 8.08842C5.30012 8.35103 5.28046 8.76989 5.51745 9.05567L7.92944 11.968C7.05698 13.3818 6.40816 14.922 6.00616 16.5339L2.22317 16.899C1.85522 16.9348 1.5754 17.2449 1.57716 17.6146V23.4188C1.57505 23.7881 1.85487 24.0985 2.22282 24.1343L6.01038 24.4994C6.4187 26.1078 7.06646 27.6463 7.93154 29.0626L5.5171 31.977C5.26958 32.2757 5.30363 32.7171 5.59434 32.9744L8.69973 35.721C8.85316 35.8569 9.05749 35.9207 9.26147 35.8965C9.46511 35.8719 9.64873 35.7617 9.76599 35.5935L14.2291 29.1896C14.4281 28.9039 14.3937 28.5163 14.1472 28.2698C9.86535 23.9879 9.865 17.0451 14.1472 12.7628C18.4295 8.48059 25.3723 8.48059 29.6546 12.7628C33.9368 17.0451 33.9368 23.9879 29.6546 28.2698C29.4049 28.5194 29.3733 28.913 29.5798 29.1991L34.1998 35.6027C34.3184 35.7673 34.5014 35.8741 34.7032 35.8965C34.9051 35.919 35.107 35.8551 35.259 35.7206L38.3655 32.9751C38.6562 32.7181 38.6906 32.2764 38.4427 31.9773L36.0289 29.0626C36.8944 27.6463 37.5425 26.1081 37.9512 24.4994L41.7366 24.1343C42.1046 24.0985 42.3844 23.7881 42.3823 23.4188V17.6138C42.384 17.2445 42.1046 16.9341 41.7366 16.8983ZM40.9442 22.7654L37.2974 23.1172C36.9878 23.147 36.7329 23.3735 36.6665 23.6775C36.2701 25.4755 35.5494 27.186 34.54 28.7259C34.3672 28.9899 34.3869 29.3357 34.5881 29.5783L36.8912 32.3586L34.9016 34.1175L31.0951 28.8414C35.5027 23.9791 35.3615 16.4359 30.6713 11.7457C25.8354 6.90981 17.9664 6.90981 13.1305 11.7457C8.43782 16.4384 8.29914 23.9872 12.7134 28.8487L9.04766 34.1088L7.06821 32.3582L9.37101 29.578C9.57219 29.3346 9.5915 28.9892 9.41876 28.7252C8.40903 27.1856 7.68789 25.4751 7.29045 23.6775C7.22515 23.3738 6.97096 23.1474 6.662 23.1172L3.01523 22.7654V18.2676L6.662 17.9154C6.97307 17.8852 7.22866 17.6574 7.29361 17.3516C7.68051 15.5533 8.4013 13.8438 9.41806 12.311C9.5929 12.0466 9.57394 11.699 9.37172 11.455L7.04223 8.64244L10.2105 5.47385L13.0231 7.80298C13.266 8.00451 13.6118 8.02382 13.8755 7.85073C15.415 6.84099 17.1255 6.11985 18.9231 5.72277C19.2275 5.65536 19.4536 5.39977 19.4835 5.08976L19.8353 1.43842H24.1245L24.4767 5.08976C24.5065 5.39977 24.7326 5.65536 25.0367 5.72277C26.8346 6.11985 28.5451 6.84135 30.0846 7.85108C30.3483 8.02417 30.6941 8.00486 30.9371 7.80333L33.7493 5.4742L36.9176 8.64244L34.5884 11.455C34.3865 11.699 34.3679 12.0466 34.5428 12.3106C35.5599 13.8435 36.2807 15.5533 36.6679 17.3516C36.7318 17.657 36.9867 17.8852 37.2971 17.9154L40.9442 18.2672V22.7654Z" fill="#4B4B4B"/>
    <path d="M24.4875 33.1696V22.2518C26.2998 21.2052 27.4896 19.2183 27.4896 17.1708C27.4896 14.373 25.8897 12.3352 23.2098 11.7205C22.9865 11.6692 22.7527 11.7271 22.5793 11.8764C22.4062 12.0259 22.3142 12.2489 22.3318 12.4771L22.5694 15.5284C21.9691 15.8433 21.2529 15.8437 20.6521 15.5291L20.9077 12.4609C20.9274 12.225 20.8298 11.9947 20.6465 11.8448C20.4633 11.6948 20.2182 11.6446 19.991 11.7106C17.5401 12.4205 16.0132 14.5285 16.0132 17.2126C16.0132 19.6762 17.3059 21.6689 19.463 22.5326V33.4083C17.9351 34.3103 16.4629 36.1405 16.4861 38.4693C16.4861 41.2443 18.0681 43.2957 20.7132 43.9575C20.9379 44.0137 21.1756 43.9586 21.3526 43.8094C21.5295 43.6602 21.624 43.4351 21.6064 43.2045L21.3698 40.1535C21.9698 39.8386 22.6864 39.8382 23.2871 40.1524L23.0315 43.221C23.0118 43.4569 23.1094 43.6872 23.2927 43.8371C23.476 43.987 23.721 44.0372 23.9482 43.9712C26.3872 43.2645 27.9173 41.1671 27.9418 38.4897C27.9422 36.0257 26.6326 34.0333 24.4875 33.1696ZM24.5643 42.1442L24.7557 39.8449C24.776 39.6002 24.6704 39.3621 24.4752 39.2133L24.4481 39.1925C23.1821 38.2316 21.4281 38.2432 20.175 39.2206C19.9868 39.3691 19.885 39.6019 19.9036 39.841L20.0872 42.2063C18.7029 41.5164 17.9287 40.1984 17.9287 38.4623C17.9101 36.5706 19.2422 35.0795 20.4917 34.4939C20.7434 34.3752 20.9032 34.1211 20.9014 33.8426V22.0232C20.9032 21.7069 20.6971 21.427 20.3944 21.3347C18.579 20.7867 17.4537 19.2071 17.4537 17.2119C17.4537 15.6049 18.1685 14.2764 19.3738 13.537L19.1832 15.8363C19.1628 16.0814 19.2688 16.3197 19.4648 16.4683L19.4914 16.4886C20.7557 17.4492 22.508 17.439 23.7607 16.464C23.767 16.4591 23.774 16.4535 23.78 16.4486C23.9591 16.2994 24.0546 16.0726 24.0367 15.8402L23.8506 13.4496C25.2627 14.1114 26.0523 15.4234 26.0523 17.1711C26.0523 18.8002 24.9867 20.444 23.4609 21.1686C23.2102 21.2877 23.0504 21.5405 23.0504 21.8182V33.6787C23.0504 33.9957 23.2583 34.2752 23.5616 34.3668C25.3775 34.9152 26.5048 36.4948 26.5048 38.4833C26.4894 40.0833 25.7686 41.4072 24.5647 42.1442H24.5643Z" fill="#4B4B4B"/>
</svg>
